<?xml version="1.0" encoding="UTF-8" standalone="no"?>
<!-- Created with Inkscape (http://www.inkscape.org/) -->

<svg
   xmlns:dc="http://purl.org/dc/elements/1.1/"
   xmlns:cc="http://creativecommons.org/ns#"
   xmlns:rdf="http://www.w3.org/1999/02/22-rdf-syntax-ns#"
   xmlns:svg="http://www.w3.org/2000/svg"
   xmlns="http://www.w3.org/2000/svg"
   xmlns:sodipodi="http://sodipodi.sourceforge.net/DTD/sodipodi-0.dtd"
   xmlns:inkscape="http://www.inkscape.org/namespaces/inkscape"
   width="500"
   height="500"
   viewBox="0 0 132.29166 132.29167"
   version="1.1"
   id="svg8"
   sodipodi:docname="back_trunk.svg"
   inkscape:version="0.92.2 5c3e80d, 2017-08-06">
  <defs
     id="defs2" />
  <sodipodi:namedview
     id="base"
     pagecolor="#ffffff"
     bordercolor="#666666"
     borderopacity="1.0"
     inkscape:pageopacity="0.0"
     inkscape:pageshadow="2"
     inkscape:zoom="3.5729193"
     inkscape:cx="254.25362"
     inkscape:cy="257.62061"
     inkscape:document-units="mm"
     inkscape:current-layer="g1785"
     showgrid="false"
     units="px"
     inkscape:window-width="1680"
     inkscape:window-height="925"
     inkscape:window-x="490"
     inkscape:window-y="59"
     inkscape:window-maximized="0" />
  <metadata
     id="metadata5">
    <rdf:RDF>
      <cc:Work
         rdf:about="">
        <dc:format>image/svg+xml</dc:format>
        <dc:type
           rdf:resource="http://purl.org/dc/dcmitype/StillImage" />
        <dc:title />
      </cc:Work>
    </rdf:RDF>
  </metadata>
  <g
     inkscape:label="Layer 1"
     inkscape:groupmode="layer"
     id="layer1"
     transform="translate(0,-164.70832)">
    <g
       id="g1785"
       transform="matrix(1.2851698,0,0,1.061818,-40.084073,-12.75243)">
      <path
         sodipodi:nodetypes="ccccc"
         inkscape:connector-curvature="0"
         id="path1701"
         d="m 79.336599,232.73888 c -0.113134,0.22482 -0.631874,1.56595 -1.482679,4.32814 0.619045,1.02068 2.876802,1.24231 3.830263,0.90974 0.119113,-1.17634 1.226456,-3.60244 0.710454,-4.52112 z"
         style="fill:#2d7c8f;fill-opacity:1;stroke:#000000;stroke-width:0.34676549;stroke-linecap:butt;stroke-linejoin:miter;stroke-miterlimit:4;stroke-dasharray:none;stroke-opacity:1" />
      <path
         style="fill:#325862;fill-opacity:1;stroke:none;stroke-width:0.17401837px;stroke-linecap:butt;stroke-linejoin:miter;stroke-opacity:1"
         d="m 81.532083,237.84875 c -1.114917,0.27605 -2.926244,-1e-5 -3.481584,-0.81584 1.600178,-1.32542 4.013869,-1.71808 4.298505,-2.87829 0.140779,0.87481 -0.673414,2.72017 -0.816921,3.69413 z"
         id="path1733"
         inkscape:connector-curvature="0"
         sodipodi:nodetypes="cccc" />
      <path
         style="fill:#cccccc;fill-opacity:1;stroke:#000000;stroke-width:0.2800692px;stroke-linecap:butt;stroke-linejoin:miter;stroke-opacity:1"
         d="m 84.521242,222.25435 1.048152,-0.21715 c 1.012779,0.0507 1.535057,0.61259 1.868524,1.24126 0.06333,0.11939 0.234732,0.1522 0.286507,0.27336 -0.206648,0.66158 -0.94679,0.66191 -1.574804,0.57342 l -0.879699,-0.46773 -0.636375,-0.36749 -0.29947,-0.45102 z"
         id="path1683"
         inkscape:connector-curvature="0"
         sodipodi:nodetypes="ccscccccc" />
      <path
         style="fill:#808080;fill-opacity:1;stroke:#000000;stroke-width:0.28051025;stroke-linecap:butt;stroke-linejoin:round;stroke-miterlimit:4;stroke-dasharray:none;stroke-opacity:1"
         d="m 83.791283,223.32343 c -0.02681,-0.82074 -0.125069,-1.19247 0.323388,-1.87858 0.109704,-0.25428 0.472367,-0.21708 0.472367,-0.21708 0.118561,0.15443 0.250149,0.81247 0.378993,0.95484 l 0.753096,0.37245 c 0.717784,0.41699 0.581313,0.89719 0.430494,1.57021 l -0.336905,0.21715 -0.86098,-0.46772 z"
         id="path1685"
         inkscape:connector-curvature="0"
         sodipodi:nodetypes="ccscccccc" />
      <path
         sodipodi:nodetypes="ccccccccccc"
         inkscape:connector-curvature="0"
         id="path1687"
         d="m 86.490159,234.98248 -1.462465,1.26679 0.06194,1.19421 -0.455578,0.80773 c 0.503911,0.35328 1.254456,0.0265 1.920023,-0.0659 0.990635,-0.33745 1.754859,-0.88236 2.440874,-1.49894 l -0.974299,-1.0341 -0.44179,-0.60739 -0.93639,-2.72669 -0.581547,0.4638 z"
         style="fill:#325862;fill-opacity:1;stroke:none;stroke-width:0.17949215px;stroke-linecap:butt;stroke-linejoin:miter;stroke-opacity:1" />
      <path
         inkscape:connector-curvature="0"
         id="path1689"
         d="m 86.624399,232.08123 c -0.877572,0.72832 -2.695802,1.84381 -3.816112,1.4565 l 0.208661,1.08824 0.207365,1.18069 0.957215,2.32393 0.452509,0.12063 c 3.509508,-2.95108 1.629679,-3.10592 1.990338,-6.16998 z"
         style="fill:#2d7c8f;fill-opacity:1;stroke:none;stroke-width:0.17949215px;stroke-linecap:butt;stroke-linejoin:miter;stroke-opacity:1"
         sodipodi:nodetypes="ccccccc" />
      <path
         style="fill:none;stroke:#000000;stroke-width:0.35767305;stroke-linecap:butt;stroke-linejoin:miter;stroke-miterlimit:4;stroke-dasharray:none;stroke-opacity:1"
         d="m 88.994973,236.68637 c -1.052503,1.14729 -3.198765,2.12134 -4.753585,1.51637 -0.960601,-1.40765 -1.312192,-3.00114 -1.433101,-4.66501 0.980237,0.42733 2.298497,-0.20277 3.816112,-1.4565 0.473545,1.70071 0.909661,3.42101 2.370574,4.60514 z"
         id="path1691"
         inkscape:connector-curvature="0"
         sodipodi:nodetypes="ccccc" />
      <path
         style="fill:#ffccaa;fill-opacity:1;stroke:none;stroke-width:0.2800692px;stroke-linecap:butt;stroke-linejoin:miter;stroke-opacity:1"
         d="m 81.477001,221.67335 -0.487401,1.27309 -1.074598,0.18101 0.132349,0.90951 2.382279,0.92131 1.707301,-0.0236 0.741153,-0.55515 0.05294,-0.69689 -0.899972,-0.51972 -0.741153,-1.26386 -0.913208,-0.36616 -0.794093,-0.10631 z"
         id="path1693"
         inkscape:connector-curvature="0" />
      <path
         style="fill:#2d7c8f;fill-opacity:1;stroke:none;stroke-width:0.2800692px;stroke-linecap:butt;stroke-linejoin:miter;stroke-opacity:1"
         d="m 80.245874,223.18651 c 2.225419,-0.31384 2.225419,-0.31384 2.225419,-0.31384 0.773432,-0.35501 3.472723,1.10235 3.58526,1.83276 0.308875,0.84539 0.237847,1.75764 0.414024,2.62836 0.262185,1.20882 -0.241424,2.43755 0.126633,3.63503 0.319572,0.77212 -0.193233,1.47505 -1.081275,1.5803 -0.964941,0.52009 -2.105353,0.33328 -3.171816,0.41747 -0.951174,0.065 -1.878649,-0.39094 -2.706121,-0.78147 -0.326285,-0.78694 0.355057,-1.78498 0.277329,-2.66854 -0.04048,-1.84936 -0.42782,-3.6726 -0.543843,-5.51568 -0.04299,-0.46874 0.367061,-0.80457 0.87439,-0.81439 z"
         id="path1695"
         inkscape:connector-curvature="0"
         sodipodi:nodetypes="ccccccccccc" />
      <path
         style="fill:#2c6271;fill-opacity:1;stroke:none;stroke-width:0.2800692px;stroke-linecap:butt;stroke-linejoin:miter;stroke-opacity:1"
         d="m 79.462878,225.59185 0.327326,1.99512 0.10193,2.48502 -0.490137,1.85624 2.193378,0.41555 1.628374,0.26727 3.400624,-0.52981 0.02457,-2.92799 -0.836227,-4.81083 c -2.183302,0.11191 -4.149335,2.76204 -5.012759,0.71888 l 0.04673,-0.3347 z"
         id="path1697"
         inkscape:connector-curvature="0"
         sodipodi:nodetypes="cccccccccccc" />
      <path
         sodipodi:nodetypes="cccccccccccccccc"
         inkscape:connector-curvature="0"
         id="path1699"
         d="m 83.867232,222.76132 c 0.70236,1.17279 0.466055,0.80039 1.727575,1.20926 0.455223,0.122 0.475793,1.11533 0.535656,1.53285 l 0.522252,5.76998 -0.02834,0.80783 c -0.543371,2.22713 -3.065742,1.06182 -5.605494,1.05357 l -1.327798,-0.35566 -0.289088,-0.85092 0.509866,-2.67918 -0.647621,-4.9388 c -0.147706,-0.48024 -0.0046,-0.6668 0.336564,-0.97157 0.383629,-0.30095 0.738575,-0.36566 1.388795,-0.39224 l 0.4874,-1.2731 c 0.07518,-0.35275 0.384138,-0.24313 0.643804,-0.22417 l 0.501856,0.0269 c 0.640256,0.0236 0.928918,0.84285 1.24457,1.28523 z"
         style="fill:none;fill-opacity:1;stroke:#000000;stroke-width:0.42010382;stroke-linecap:butt;stroke-linejoin:miter;stroke-miterlimit:4;stroke-dasharray:none;stroke-opacity:1" />
      <path
         sodipodi:nodetypes="ccccc"
         inkscape:connector-curvature="0"
         id="path1703"
         d="m 86.652715,231.27341 0.743199,1.05882 c -1.460643,2.51517 -5.90034,1.7919 -8.362965,0.61724 l 0.369052,-1.02124 c 2.552957,0.11058 5.774987,1.83838 7.250714,-0.65482 z"
         style="fill:#6c5353;stroke:#000000;stroke-width:0.42010382;stroke-linecap:butt;stroke-linejoin:round;stroke-miterlimit:4;stroke-dasharray:none;stroke-opacity:1" />
      <path
         sodipodi:nodetypes="ccccc"
         inkscape:connector-curvature="0"
         id="path1709"
         d="m 86.375584,227.75481 0.126306,1.49578 c -1.422657,1.51409 -4.215182,0.50167 -6.586563,0.26599 8.49e-4,-0.54992 0.08573,-1.09151 -0.12166,-1.66208 2.376329,0.16829 5.240508,0.87571 6.581917,-0.0997 z"
         style="fill:#6c5353;fill-opacity:1;stroke:#000000;stroke-width:0.42010382;stroke-linecap:butt;stroke-linejoin:round;stroke-miterlimit:4;stroke-dasharray:none;stroke-opacity:1" />
      <path
         sodipodi:nodetypes="ccsccccc"
         inkscape:connector-curvature="0"
         id="path1711"
         d="m 78.64956,224.46858 c -0.913009,1.9148 -0.279834,3.48349 -0.06534,5.39829 0.171037,0.53978 -0.705287,1.43399 -0.101058,1.71711 0.813462,0.38116 0.158435,0.14283 1.154645,0.40344 0.614578,0.12392 1.159401,-0.19927 1.382833,-0.53358 -0.04193,-1.36397 -0.804977,-3.61057 -0.355934,-5.16503 0.08426,-0.67136 -0.554525,-1.03618 -0.847796,-0.83909 -1.700177,0.2621 -0.0973,1.00624 -1.16735,-0.98114 z"
         style="fill:#b3b3b3;stroke:#000000;stroke-width:0.42010382;stroke-linecap:round;stroke-linejoin:round;stroke-miterlimit:4;stroke-dasharray:none;stroke-opacity:1" />
      <path
         sodipodi:nodetypes="ccccc"
         inkscape:connector-curvature="0"
         id="path1715"
         d="m 78.526783,227.37304 c 1.031862,1.3721 0.52032,3.57627 0.431193,3.97165 1.634781,0.12902 0.92478,0.14563 1.554401,-0.26252 -0.283377,-0.64694 -0.106321,-1.1513 -0.259169,-2.29325 0.150566,-0.76403 -1.30413,-1.25539 -1.726425,-1.41588 z"
         style="fill:#666666;stroke:none;stroke-width:0.2800692;stroke-linecap:butt;stroke-linejoin:miter;stroke-miterlimit:4;stroke-dasharray:none;stroke-opacity:1" />
      <path
         style="fill:#808080;fill-opacity:1;stroke:none;stroke-width:0.17652431px;stroke-linecap:butt;stroke-linejoin:miter;stroke-opacity:1"
         d="m 78.587535,222.52566 c 0.294742,0.0645 0.589486,0.12905 0.884229,0.19357 0.258865,0.19192 0.611478,0.33885 0.644524,0.6796 0.203788,0.56101 0.39268,1.13282 0.683669,1.66247 0.06336,-0.2796 0.127362,-0.58137 0.149701,-0.87394 -0.03023,-0.34544 -0.07603,-0.69068 -0.109841,-1.03633 -0.294968,-0.41214 -0.506335,-0.87933 -0.898442,-1.22893 -0.207062,-0.23208 -0.44975,-0.43009 -0.744605,-0.56677 -0.473161,-0.0678 -0.357694,0.47974 -0.373745,0.73996 0.0059,0.17909 -0.138728,0.28962 -0.235492,0.43037 z"
         id="path1719"
         inkscape:connector-curvature="0" />
      <path
         style="fill:#cccccc;fill-opacity:1;stroke:none;stroke-width:0.17652431px;stroke-linecap:butt;stroke-linejoin:miter;stroke-opacity:1"
         d="m 78.203805,222.70432 c -0.757705,0.0523 -1.673682,0.64833 -1.835195,1.4443 0.237953,0.56518 1.031777,0.49853 1.518594,0.88489 0.615358,0.27853 1.323534,0.74637 2.032968,0.52496 0.535051,-0.17851 1.077175,-0.54216 0.621604,-1.05492 -0.27273,-0.45847 -0.19542,-0.9563 -0.506714,-1.39533 -0.386373,-0.35162 -0.90211,-0.6853 -1.447527,-0.58256 l -0.287078,0.11684 z"
         id="path1721"
         inkscape:connector-curvature="0"
         sodipodi:nodetypes="ccccccccc" />
      <path
         style="fill:#808080;fill-opacity:1;stroke:none;stroke-width:0.17652431px;stroke-linecap:butt;stroke-linejoin:miter;stroke-opacity:1"
         d="m 76.36861,224.14862 c -0.187106,0.0547 -0.776118,-0.01 -0.563619,0.2767 0.185753,0.20867 0.303883,0.47792 0.533536,0.64652 0.456695,0.13551 0.85887,0.38849 1.31347,0.52625 0.466153,0.0821 0.927754,0.28769 1.411997,0.19032 0.148649,-0.0569 0.789658,-0.034 0.398885,-0.19656 -0.339332,-0.20645 -0.764488,-0.23287 -1.114288,-0.42182 -0.423542,-0.20521 -0.844215,-0.41538 -1.259887,-0.63312 -0.09339,-0.0489 -0.186527,-0.0982 -0.279387,-0.14794 -0.147634,-0.079 -0.294569,-0.15911 -0.440707,-0.24035 z"
         id="path1723"
         inkscape:connector-curvature="0"
         sodipodi:nodetypes="cccccccssc" />
      <path
         style="fill:none;stroke:#000000;stroke-width:0.42023614;stroke-linecap:butt;stroke-linejoin:miter;stroke-miterlimit:4;stroke-dasharray:none;stroke-opacity:1"
         d="m 75.717957,224.31242 c 0.182731,0.77903 1.1703,1.01843 1.89357,1.27014 0.766292,0.28881 1.621005,0.27108 2.392356,0.0122 0.703734,-0.12866 0.954539,-0.73845 0.929209,-1.31318 0.06688,-0.88112 -0.444007,-1.68044 -1.046234,-2.34344 -0.0823,-0.51281 -1.265258,-0.85649 -1.028066,-0.0678 -0.02195,0.85984 -1.125867,0.77939 -1.6899,1.18921 -0.523769,0.21715 -0.765628,0.71578 -0.927156,1.11831 -0.174625,0.0373 -0.40821,-0.0287 -0.523779,0.13449 z"
         id="path1725"
         inkscape:connector-curvature="0" />
      <path
         style="fill:#f9f9f9;stroke:none;stroke-width:0.17652431px;stroke-linecap:butt;stroke-linejoin:miter;stroke-opacity:1"
         d="m 78.562509,222.84579 -0.684028,0.30524 c 0.889434,0.0109 2.094162,0.11227 2.246344,1.05179 0.04377,-1.23246 -0.799829,-1.38794 -1.562316,-1.35703 z"
         id="path1731"
         inkscape:connector-curvature="0"
         sodipodi:nodetypes="cccc" />
    </g>
  </g>
</svg>
